<svg width="24" height="24" viewBox="0 0 24 24" fill="none" xmlns="http://www.w3.org/2000/svg">
<g clip-path="url(#clip0_25608_2801)">
<path fill-rule="evenodd" clip-rule="evenodd" d="M16.9014 0.000976562H6.61511C1.77043 0.000976562 0 1.771 0 6.60929V16.885C0 21.7232 1.77043 23.4933 6.61511 23.4933H16.9014C21.7447 23.4933 23.5194 21.7232 23.5194 16.885V6.60929C23.5151 1.771 21.7447 0.000976562 16.9014 0.000976562Z" fill="#C8102E"/>
<path d="M4.66004 11.747H5.28451V14.8181H4.66004V13.5705H3.25189V14.8181H2.62891V11.747H3.25189V12.9858H4.66004V11.747ZM8.17484 13.5054C8.17484 14.0047 7.92561 14.271 7.47506 14.271C7.02451 14.271 6.77241 13.9975 6.77241 13.4837V11.747H6.14943V13.504C6.14943 14.3723 6.62897 14.8629 7.46777 14.8629C8.30666 14.8629 8.79783 14.3579 8.79783 13.4779V11.7412H8.17484V13.5054ZM15.3825 13.8585L14.6856 11.747H14.1757L13.4774 13.8585L12.7949 11.7485H12.13L13.2021 14.8181H13.7178L14.4176 12.8021L15.1159 14.8181H15.6375L16.7067 11.7485H16.0605L15.3825 13.8585ZM17.828 13.4968H18.9624V12.9381H17.828V12.3085H19.4752V11.7498H17.2123V14.8167H19.5304V14.2565H17.828V13.4968ZM20.2779 14.8137H20.8936V11.747H20.2779V14.8137ZM10.0307 14.177L9.75257 14.8167H9.11509L10.4697 11.747H11.0202L12.369 14.8167H11.7156L11.4389 14.177H10.0307ZM10.2625 13.6241H11.2013L10.7275 12.5241L10.2625 13.6241ZM11.7605 7.83784C10.7231 7.83784 9.72811 7.42614 8.99454 6.69331C8.26097 5.96048 7.84881 4.96661 7.84881 3.93018H8.40229C8.39297 4.37685 8.473 4.82094 8.63777 5.23633C8.80244 5.65181 9.04854 6.03018 9.36146 6.34938C9.67448 6.66858 10.048 6.92214 10.4604 7.09531C10.8727 7.26839 11.3154 7.35756 11.7628 7.35756C12.21 7.35756 12.6528 7.26839 13.065 7.09531C13.4774 6.92214 13.851 6.66858 14.164 6.34938C14.4769 6.03018 14.723 5.65181 14.8876 5.23633C15.0524 4.82094 15.1324 4.37685 15.1231 3.93018H15.6766C15.6766 4.44368 15.5752 4.95221 15.3784 5.42658C15.1816 5.90094 14.893 6.33193 14.5293 6.69488C14.1656 7.05774 13.7339 7.34556 13.2588 7.54162C12.7838 7.73778 12.2746 7.83839 11.7605 7.83784Z" fill="white"/>
</g>
<defs>
<clipPath id="clip0_25608_2801">
<rect width="24" height="24" fill="white"/>
</clipPath>
</defs>
</svg>
