<svg width="24" height="24" viewBox="0 0 24 24" fill="none" xmlns="http://www.w3.org/2000/svg">
<path d="M17.3311 20.1966C16.2972 21.252 15.1685 21.0854 14.0819 20.5854C12.9321 20.0744 11.8771 20.0522 10.664 20.5854C9.14491 21.2742 8.34317 21.0743 7.43595 20.1966C2.28795 14.6084 3.04749 6.09838 8.89173 5.78731C10.3159 5.86508 11.3075 6.60943 12.1409 6.67608C13.3857 6.40945 14.5777 5.64288 15.9069 5.74287C17.4998 5.87619 18.7025 6.54277 19.4936 7.74262C16.2023 9.82013 16.9829 14.3862 20 15.6638C19.3987 17.3303 18.6181 18.9856 17.3205 20.2077L17.3311 20.1966ZM12.0354 5.72065C11.8771 3.24318 13.7865 1.199 15.9808 0.999023C16.2867 3.86533 13.5123 5.99839 12.0354 5.72065Z" fill="#4F5D74"/>
</svg>
