<svg width="230" height="48" viewBox="0 0 230 48" fill="none" xmlns="http://www.w3.org/2000/svg">
<path fill-rule="evenodd" clip-rule="evenodd" d="M218.128 8.91736L216.967 9.06259L216.221 9.1352C214.827 9.25622 212.712 9.42566 210.853 10.5512C209.007 11.6767 206.892 14.0246 205.413 15.8399C189.359 18.4056 180.569 27.4824 174.749 33.4851L171.105 37.5515L171.717 37.37C182.647 27.7365 192.404 22.593 201.537 21.6248L201.671 21.6127L202.882 20.0999L205.437 16.8928C206.489 15.9851 207.944 15.6705 210.083 15.4405L213.824 15.2106L218.25 14.908C220.781 14.5813 222.958 14.0367 225.941 10.1155L230 4.88728L229.511 4.5C225.782 8.02178 221.711 8.49378 218.128 8.91736ZM218.202 9.52248C221.307 9.15941 224.767 8.6269 228.093 6.31535C226.895 7.86445 225.415 9.76452 225.415 9.76452C222.579 13.492 220.61 14.0003 218.153 14.315L213.776 14.6055L209.985 14.8354C208.384 15.0048 207.222 15.3316 206.207 15.8157C207.626 14.1093 209.521 12.064 211.171 11.0595C212.895 10.0066 214.913 9.83714 216.258 9.72822L217.04 9.6556C217.052 9.6556 218.202 9.52248 218.202 9.52248ZM204.899 16.5539C204.606 16.9049 202.356 19.7248 202.356 19.7248C202.356 19.7248 201.427 20.8745 201.292 21.0439C193.492 21.9032 185.251 25.7759 176.265 32.7832C181.95 26.962 190.374 19.0591 204.899 16.5539Z" fill="#10349E"/>
<path fill-rule="evenodd" clip-rule="evenodd" d="M171.484 37.1522C183.087 29.0557 189.323 25.8486 203.114 25.7275L200.143 29.5519C199.581 30.6895 198.713 30.6411 197.808 30.5806C187.953 30.508 181.07 31.2099 169.1 39.5L171.484 37.1522Z" fill="url(#paint0_linear_25608_2942)"/>
<path fill-rule="evenodd" clip-rule="evenodd" d="M171.484 37.1401C183.161 26.8531 192.905 22.2179 201.488 21.3223C202.246 20.3663 204.863 17.1591 205.657 16.082C186.107 19.1318 177.463 31.7546 171.484 37.1401Z" fill="url(#paint1_linear_25608_2942)"/>
<path fill-rule="evenodd" clip-rule="evenodd" d="M172.083 36.5591C171.851 36.777 171.044 37.5999 170.812 37.7936C177.659 32.9768 183.405 27.9544 197.698 26.0906C198.407 25.316 200.485 22.714 201.464 21.3223C188.43 23.0166 179.908 29.9512 172.083 36.5591Z" fill="url(#paint2_linear_25608_2942)"/>
<path fill-rule="evenodd" clip-rule="evenodd" d="M199.886 29.9996C200.009 29.576 200.314 29.2613 198.872 28.4505C197.172 27.4944 196.573 27.8938 196.952 26.9135C197.233 26.1752 200.889 24.6987 203.567 25.5701C203.567 25.5701 201.195 28.1842 199.886 29.9996Z" fill="url(#paint3_linear_25608_2942)"/>
<path fill-rule="evenodd" clip-rule="evenodd" d="M210.157 14.8837C207.479 15.2226 205.792 15.864 204.728 17.1468L200.999 21.9152C201.806 21.2253 204.276 20.8865 206.941 20.8139H207.32C207.43 20.8139 207.54 20.8139 207.662 20.8139C208.041 20.8018 208.433 20.7896 208.848 20.7775C212.626 20.6323 217.872 20.124 220.94 16.7233L225.525 10.66L226.075 9.93384C222.077 14.9563 212.981 14.5206 210.157 14.8837Z" fill="url(#paint4_linear_25608_2942)"/>
<path fill-rule="evenodd" clip-rule="evenodd" d="M212.37 20.1846C209.509 20.5718 206.22 20.6808 205.278 20.7292C203.677 20.8018 201.537 21.2859 200.95 21.9757C199.153 24.1057 197.429 26.1026 196.952 26.9256C198.053 25.9574 201.672 26.0663 206.061 25.8727C210.45 25.679 214.888 23.8637 218.397 20.0514L221.063 16.5417C219.29 18.7081 216.148 19.6763 212.37 20.1846Z" fill="url(#paint5_linear_25608_2942)"/>
<path fill-rule="evenodd" clip-rule="evenodd" d="M217.003 9.35297C215.842 9.4982 213.201 9.46189 211.012 10.7932C208.812 12.1244 206.171 15.2952 204.875 16.9654C206.085 15.7309 207.687 15.3799 210.034 15.1258C212.382 14.8716 215.781 14.908 218.202 14.6054C220.512 14.3149 222.676 13.8672 225.672 9.94599L229.731 4.71777C225.525 8.68734 220.928 8.85678 217.003 9.35297Z" fill="url(#paint6_linear_25608_2942)"/>
<path fill-rule="evenodd" clip-rule="evenodd" d="M119.062 30.5435L124.84 19.8747H124.949L131.336 30.5435H137.906L129.422 16.7615H123.877L116.222 30.5435H119.062Z" fill="#10349E"/>
<path fill-rule="evenodd" clip-rule="evenodd" d="M28.2295 24.5205L37.2979 24.4247C37.2004 26.3525 36.0303 27.4182 35.4209 27.8732C33.9217 28.9509 31.7764 29.0467 30.7526 29.0467C29.2534 29.0467 27.9614 28.8551 26.6328 28.1366C25.7918 27.6816 24.8289 26.9153 24.3414 26.2687L23.9391 25.7179L20.9895 27.2506C21.8549 28.1606 23.1956 29.0586 24.6217 29.7172C26.8035 30.6991 28.8268 30.9386 31.2645 30.9386C33.8607 30.9386 37.9073 30.6033 40.8326 28.6156C42.8681 27.2266 43.8067 25.3347 43.8067 23.6584C43.8067 21.982 42.8681 20.0662 40.8326 18.7011C38.3096 16.9769 34.6286 16.3782 31.3377 16.3782C29.2046 16.3782 27.2423 16.5698 25.2555 17.2403C23.5979 17.7672 22.3059 18.4976 20.9773 19.5393L23.927 21.048L24.6339 20.3535C25.2189 19.7548 26.2062 19.204 27.1082 18.8688C28.3027 18.3898 29.5459 18.2341 30.8501 18.2341C33.4707 18.2341 34.9821 19.0005 35.8231 19.7548C36.3838 20.2338 37.1151 21.1319 37.2979 22.5328L28.2295 22.4011V24.5205Z" fill="#10349E"/>
<path fill-rule="evenodd" clip-rule="evenodd" d="M148.34 18.0545C149.815 18.0545 151.497 18.3539 152.789 19.8506C153.837 21.048 154.008 22.437 154.008 23.6584C154.008 24.8797 153.837 26.2447 152.789 27.4661C151.497 28.9748 149.815 29.2622 148.34 29.2622C146.865 29.2622 145.183 28.9748 143.891 27.4661C142.855 26.2447 142.672 24.8797 142.672 23.6584C142.672 22.437 142.855 21.048 143.891 19.8506C145.183 18.3539 146.865 18.0545 148.34 18.0545ZM148.34 30.9505C151.095 30.9505 154.922 30.3758 157.494 28.6276C159.529 27.2625 160.492 25.3227 160.492 23.6703C160.492 22.0179 159.529 20.0781 157.494 18.7131C154.922 16.9649 151.083 16.3901 148.34 16.3901C145.61 16.3901 141.746 16.9649 139.15 18.7131C137.114 20.0781 136.176 22.0179 136.176 23.6703C136.176 25.3227 137.114 27.2625 139.15 28.6276C141.746 30.3758 145.61 30.9505 148.34 30.9505Z" fill="#10349E"/>
<path fill-rule="evenodd" clip-rule="evenodd" d="M98.8283 20.2339C99.389 20.0663 100.047 19.9705 100.718 19.9705H101.412V27.1309H100.718C100.059 27.1309 99.4012 27.0351 98.8283 26.8675C98.3286 26.7238 97.8654 26.5322 97.4998 26.2448C96.8172 25.7419 96.2565 24.9037 96.2565 23.5387C96.2565 22.1976 96.8172 21.3594 97.4998 20.8565C97.8654 20.5811 98.3286 20.3776 98.8283 20.2339ZM109.469 28.8911C112.748 28.6995 114.479 27.9811 115.405 27.4542C117.136 26.4723 117.928 25.0714 117.928 23.5387C117.928 21.5271 116.526 20.3177 115.405 19.6591C113.845 18.7252 111.663 18.342 109.469 18.2223C108.884 18.1744 108.299 18.1744 107.714 18.1744H107.08V16.2825H101.205V18.1744H100.596C100.011 18.1744 99.4256 18.1744 98.8405 18.2223C96.6222 18.342 94.4404 18.7252 92.9046 19.6591C91.7833 20.3297 90.3816 21.5271 90.3816 23.5387C90.3816 25.0714 91.1739 26.4604 92.9046 27.4542C93.7944 27.9811 95.5252 28.6995 98.8405 28.8911C99.3768 28.915 99.9619 28.939 100.596 28.939H101.205V30.9506H107.08V28.939H107.714C108.348 28.939 108.945 28.915 109.469 28.8911ZM109.469 20.2339C109.981 20.3776 110.432 20.5692 110.798 20.8565C111.48 21.3594 112.041 22.1976 112.041 23.5387C112.041 24.9037 111.48 25.7419 110.798 26.2448C110.432 26.5322 109.981 26.7238 109.469 26.8675C108.884 27.0351 108.25 27.1309 107.555 27.1309H106.897V19.9705H107.555C108.25 19.9705 108.884 20.0782 109.469 20.2339Z" fill="#10349E"/>
<path fill-rule="evenodd" clip-rule="evenodd" d="M76.9367 18.0545C78.3872 18.0545 80.0936 18.3539 81.3978 19.8506C82.446 21.048 82.6167 22.437 82.6167 23.6584C82.6167 24.8797 82.4338 26.2447 81.3978 27.4661C80.0936 28.9748 78.3872 29.2622 76.9367 29.2622C75.4619 29.2622 73.7555 28.9748 72.4635 27.4661C71.4153 26.2447 71.2568 24.8797 71.2568 23.6584C71.2568 22.437 71.4153 21.048 72.4635 19.8506C73.7677 18.3539 75.4741 18.0545 76.9367 18.0545ZM76.9367 30.9505C79.667 30.9505 83.5308 30.3758 86.1026 28.6276C88.1137 27.2625 89.0645 25.3227 89.0645 23.6703C89.0645 22.0179 88.1137 20.0781 86.1026 18.7131C83.5308 16.9649 79.667 16.3901 76.9367 16.3901C74.1943 16.3901 70.3183 16.9649 67.7465 18.7131C65.711 20.0781 64.7725 22.0179 64.7725 23.6703C64.7725 25.3227 65.711 27.2625 67.7465 28.6276C70.3305 30.3758 74.1943 30.9505 76.9367 30.9505Z" fill="#10349E"/>
<path fill-rule="evenodd" clip-rule="evenodd" d="M54.7527 25.4905H55.8497C58.6775 25.4905 60.6398 25.2031 62.0415 24.4368C63.7967 23.4549 64.1989 22.1138 64.1989 21.0601C64.1989 20.0304 63.7967 18.6893 62.0415 17.7553C60.6398 17.0129 58.7628 16.7734 55.6059 16.7734H54.7527H45.5381V30.5555H51.413V25.5025H54.7527V25.4905ZM54.7527 18.8689C55.4597 18.8928 56.386 19.0126 57.0442 19.3957C57.934 19.9226 58.0802 20.641 58.0802 21.0721C58.0802 21.5032 57.9583 22.2695 56.9832 22.8203C56.3251 23.2274 55.5084 23.3472 54.7405 23.3951H54.1311H51.413V18.8449H54.1311C54.3261 18.8449 54.5211 18.8449 54.7527 18.8689Z" fill="#10349E"/>
<path fill-rule="evenodd" clip-rule="evenodd" d="M9.23901 19.9945L12.1643 24.6883H6.31373L9.08055 19.8987H9.16587L9.23901 19.9945ZM13.371 26.5682L15.894 30.5435H22.4637L13.5416 16.7615H8.09327L0 30.5435H2.92528L5.24112 26.5682H13.371Z" fill="#10349E"/>
<path fill-rule="evenodd" clip-rule="evenodd" d="M159.566 18.845H165.88V30.5435H171.767V18.845H178.093V16.7615H159.566V18.845Z" fill="#10349E"/>
<defs>
<linearGradient id="paint0_linear_25608_2942" x1="176.583" y1="23.8272" x2="193.947" y2="40.1858" gradientUnits="userSpaceOnUse">
<stop offset="0.2086" stop-color="#DD052B"/>
<stop offset="0.2406" stop-color="#DF1F31"/>
<stop offset="0.2961" stop-color="#E34242"/>
<stop offset="0.3686" stop-color="#E97165"/>
<stop offset="0.4543" stop-color="#F3AA9C"/>
<stop offset="0.4601" stop-color="#F3AEA0"/>
<stop offset="0.4622" stop-color="#F3AD9E"/>
<stop offset="0.5386" stop-color="#EB7D6F"/>
<stop offset="0.6099" stop-color="#E5544E"/>
<stop offset="0.6739" stop-color="#E1323A"/>
<stop offset="0.7283" stop-color="#DE182F"/>
<stop offset="0.7669" stop-color="#DD052B"/>
</linearGradient>
<linearGradient id="paint1_linear_25608_2942" x1="183.161" y1="22.8701" x2="199.522" y2="34.4436" gradientUnits="userSpaceOnUse">
<stop offset="0.3742" stop-color="white"/>
<stop offset="0.4868" stop-color="#F1F2FA"/>
<stop offset="0.6935" stop-color="#DCDFF1"/>
<stop offset="0.8221" stop-color="#D5D8EE"/>
</linearGradient>
<linearGradient id="paint2_linear_25608_2942" x1="178.468" y1="22.4772" x2="194.344" y2="37.4331" gradientUnits="userSpaceOnUse">
<stop offset="0.184" stop-color="#004A99"/>
<stop offset="0.4847" stop-color="#A4AED8"/>
<stop offset="0.569" stop-color="#8695CA"/>
<stop offset="0.7117" stop-color="#5471B5"/>
<stop offset="0.8363" stop-color="#2E5BA5"/>
<stop offset="0.9366" stop-color="#0E4E9D"/>
<stop offset="1" stop-color="#004A99"/>
</linearGradient>
<linearGradient id="paint3_linear_25608_2942" x1="196.502" y1="24.5494" x2="204.179" y2="29.3952" gradientUnits="userSpaceOnUse">
<stop offset="0.3742" stop-color="#DD052B"/>
<stop offset="0.4338" stop-color="#DE1B2F"/>
<stop offset="0.5278" stop-color="#E1393D"/>
<stop offset="0.6444" stop-color="#E76057"/>
<stop offset="0.7791" stop-color="#EE9182"/>
<stop offset="0.9272" stop-color="#F7C9BD"/>
<stop offset="0.9693" stop-color="#FAD9D0"/>
</linearGradient>
<linearGradient id="paint4_linear_25608_2942" x1="204.33" y1="8.55974" x2="223.135" y2="23.944" gradientUnits="userSpaceOnUse">
<stop offset="0.135" stop-color="#D2D6ED"/>
<stop offset="0.2586" stop-color="#7789C3"/>
<stop offset="0.3589" stop-color="#2C59A5"/>
<stop offset="0.4049" stop-color="#004A99"/>
<stop offset="0.4969" stop-color="#004A99"/>
<stop offset="0.5434" stop-color="#084D9C"/>
<stop offset="0.6063" stop-color="#2556A2"/>
<stop offset="0.6786" stop-color="#4467AE"/>
<stop offset="0.7578" stop-color="#6B80BE"/>
<stop offset="0.8427" stop-color="#9AA5D4"/>
<stop offset="0.9312" stop-color="#D1D5EC"/>
<stop offset="0.9325" stop-color="#D2D6ED"/>
</linearGradient>
<linearGradient id="paint5_linear_25608_2942" x1="201.091" y1="15.3696" x2="216.775" y2="28.2001" gradientUnits="userSpaceOnUse">
<stop offset="0.1472" stop-color="#FAD9D0"/>
<stop offset="0.1505" stop-color="#F9D5CB"/>
<stop offset="0.1876" stop-color="#F2A99A"/>
<stop offset="0.2254" stop-color="#EC8173"/>
<stop offset="0.2629" stop-color="#E65E55"/>
<stop offset="0.3003" stop-color="#E23F41"/>
<stop offset="0.3376" stop-color="#DF2734"/>
<stop offset="0.3746" stop-color="#DE122D"/>
<stop offset="0.411" stop-color="#DD052B"/>
<stop offset="0.5706" stop-color="#DD052B"/>
<stop offset="0.6186" stop-color="#DE162E"/>
<stop offset="0.6795" stop-color="#E02E37"/>
<stop offset="0.7474" stop-color="#E44B48"/>
<stop offset="0.8204" stop-color="#E96F63"/>
<stop offset="0.8973" stop-color="#F09A8B"/>
<stop offset="0.9765" stop-color="#F8CABF"/>
<stop offset="1" stop-color="#FAD9D0"/>
</linearGradient>
<linearGradient id="paint6_linear_25608_2942" x1="210.407" y1="5.31297" x2="223.905" y2="16.3557" gradientUnits="userSpaceOnUse">
<stop offset="0.1902" stop-color="white"/>
<stop offset="0.3566" stop-color="#E2E4F4"/>
<stop offset="0.4601" stop-color="#D5D8EE"/>
<stop offset="0.8589" stop-color="white"/>
</linearGradient>
</defs>
</svg>
