<svg width="191" height="30" viewBox="0 0 191 30" fill="none" xmlns="http://www.w3.org/2000/svg">
<g clip-path="url(#clip0_25608_2771)">
<path fill-rule="evenodd" clip-rule="evenodd" d="M98.9183 22.4348L103.727 13.4405H103.806L109.115 22.4348H114.571L107.535 10.8091H102.92L96.554 22.4348H98.9183Z" fill="#1D4CC4"/>
<path fill-rule="evenodd" clip-rule="evenodd" d="M23.4505 17.3647L30.987 17.2853C30.896 18.9072 29.9298 19.8146 29.4183 20.2002C28.1793 21.1076 26.3946 21.187 25.542 21.187C24.303 21.187 23.2231 21.0282 22.1205 20.4157C21.4157 20.0301 20.62 19.3836 20.2221 18.8391L19.8811 18.3741L17.4258 19.6671C18.1419 20.4271 19.2673 21.1983 20.4495 21.7427C22.2683 22.5707 23.9393 22.7749 25.9626 22.7749C28.1224 22.7749 31.4871 22.4913 33.9198 20.8127C35.6135 19.6444 36.3865 18.0452 36.3865 16.6274C36.3865 15.2097 35.6021 13.5991 33.9198 12.4422C31.8282 10.979 28.759 10.48 26.0308 10.48C24.2575 10.48 22.632 10.6388 20.9837 11.2172C19.6083 11.6596 18.5284 12.272 17.4258 13.1567L19.8811 14.4271L20.4722 13.8373C20.961 13.3269 21.7795 12.8618 22.5297 12.5783C23.5187 12.17 24.5531 12.0452 25.633 12.0452C27.8155 12.0452 29.0659 12.6917 29.7593 13.3269C30.2254 13.7352 30.8392 14.4951 30.987 15.6747L23.4505 15.5726V17.3533V17.3647Z" fill="#1D4CC4"/>
<path fill-rule="evenodd" clip-rule="evenodd" d="M123.245 11.8977C124.473 11.8977 125.859 12.1473 126.939 13.4176C127.803 14.4271 127.951 15.6066 127.951 16.6274C127.951 17.6482 127.803 18.8165 126.939 19.8486C125.859 21.1189 124.461 21.3684 123.245 21.3684C122.029 21.3684 120.619 21.1303 119.539 19.8486C118.675 18.8165 118.527 17.6596 118.527 16.6274C118.527 15.5953 118.675 14.4271 119.539 13.4176C120.619 12.1473 122.017 11.8977 123.245 11.8977ZM123.245 22.7749C125.53 22.7749 128.713 22.2872 130.861 20.8127C132.555 19.6558 133.362 18.0225 133.362 16.6274C133.362 15.2323 132.555 13.5991 130.861 12.4422C128.724 10.9677 125.541 10.48 123.245 10.48C120.949 10.48 117.766 10.9677 115.606 12.4422C113.912 13.5991 113.128 15.2323 113.128 16.6274C113.128 18.0225 113.912 19.6671 115.606 20.8127C117.766 22.2872 120.971 22.7749 123.245 22.7749Z" fill="#1D4CC4"/>
<path fill-rule="evenodd" clip-rule="evenodd" d="M82.1057 13.7467C82.5718 13.6106 83.1174 13.5312 83.6744 13.5312H84.2541V19.5766H83.6744C83.1288 19.5766 82.5718 19.4972 82.1057 19.3497C81.6851 19.225 81.2986 19.0662 81.0031 18.8166C80.4347 18.397 79.9686 17.6938 79.9686 16.5369C79.9686 15.38 80.4347 14.6994 81.0031 14.2798C81.2986 14.0416 81.6851 13.8715 82.1057 13.758M90.9495 21.0624C93.6776 20.9036 95.1213 20.2911 95.8829 19.8488C97.3152 19.0208 97.9745 17.8412 97.9745 16.5482C97.9745 14.8469 96.815 13.8374 95.8829 13.2703C94.587 12.4877 92.7682 12.1588 90.9495 12.0567C90.4607 12.0114 89.9719 12.0114 89.4945 12.0114H88.9602V10.4121H84.0722V12.0114H83.5607C83.0719 12.0114 82.5831 12.0114 82.0943 12.0567C80.2528 12.1588 78.4454 12.4877 77.1609 13.2703C76.2288 13.8261 75.0693 14.8469 75.0693 16.5482C75.0693 17.8412 75.7286 19.0208 77.1609 19.8488C77.8998 20.2911 79.3434 20.9036 82.0943 21.0624C82.5377 21.0851 83.0265 21.1078 83.5607 21.1078H84.0722V22.8091H88.9602V21.1078H89.4945C90.0174 21.1078 90.5061 21.0851 90.9495 21.0624ZM90.9495 13.758C91.3701 13.8828 91.7566 14.0416 92.0521 14.2798C92.6205 14.7108 93.0865 15.414 93.0865 16.5369C93.0865 17.6597 92.6205 18.397 92.0521 18.8166C91.7566 19.0662 91.3701 19.225 90.9495 19.3497C90.4607 19.4858 89.9378 19.5766 89.358 19.5766H88.8124V13.5312H89.358C89.9264 13.5312 90.4607 13.6106 90.9495 13.7467" fill="#1D4CC4"/>
<path fill-rule="evenodd" clip-rule="evenodd" d="M63.918 11.8977C65.123 11.8977 66.5439 12.1473 67.6238 13.4176C68.4877 14.4271 68.6355 15.6066 68.6355 16.6274C68.6355 17.6482 68.4877 18.8165 67.6238 19.8486C66.5439 21.1189 65.123 21.3684 63.918 21.3684C62.7131 21.3684 61.2808 21.1303 60.2009 19.8486C59.3256 18.8165 59.2006 17.6596 59.2006 16.6274C59.2006 15.5953 59.337 14.4271 60.2009 13.4176C61.2695 12.1473 62.6904 11.8977 63.918 11.8977ZM63.918 22.7749C66.1801 22.7749 69.3971 22.2872 71.5341 20.8127C73.2051 19.6558 73.9895 18.0225 73.9895 16.6274C73.9895 15.2323 73.2051 13.5991 71.5341 12.4422C69.3971 10.9677 66.1915 10.48 63.918 10.48C61.6446 10.48 58.4276 10.9677 56.2906 12.4422C54.5968 13.5991 53.8125 15.2323 53.8125 16.6274C53.8125 18.0225 54.5968 19.6671 56.2906 20.8127C58.4276 22.2872 61.6446 22.7749 63.918 22.7749Z" fill="#1D4CC4"/>
<path fill-rule="evenodd" clip-rule="evenodd" d="M45.4916 18.1701H46.401C48.7541 18.1701 50.3796 17.932 51.5391 17.2741C53.0054 16.4461 53.3351 15.3119 53.3351 14.4272C53.3351 13.5425 53.0054 12.4197 51.5391 11.6371C50.3682 11.0019 48.8109 10.8091 46.1851 10.8091H37.8301V22.4348H42.718V18.1701H45.4916ZM45.4916 12.5898C46.0827 12.6125 46.8444 12.7146 47.39 13.0321C48.1289 13.4745 48.2539 14.087 48.2539 14.4499C48.2539 14.8129 48.1516 15.4594 47.3445 15.9244C46.7989 16.2647 46.1168 16.3667 45.4803 16.4121H42.7067V12.5671H44.9688C45.1165 12.5671 45.287 12.5671 45.4803 12.5898" fill="#1D4CC4"/>
<path fill-rule="evenodd" clip-rule="evenodd" d="M7.67294 13.5425L10.1055 17.501H5.24033L7.54789 13.4631H7.6161L7.67294 13.5425ZM11.1059 19.0775L13.1974 22.4348H18.6538L11.2536 10.8091H6.72945L0 22.4348H2.4326L4.35368 19.0775H11.1059Z" fill="#1D4CC4"/>
<path fill-rule="evenodd" clip-rule="evenodd" d="M132.577 12.5671H137.817V22.4348H142.705V12.5671H147.968V10.8091H132.577V12.5671Z" fill="#1D4CC4"/>
<path d="M190.857 0.170132L190.653 0C187.675 3.00567 184.264 3.42533 181.263 3.79962C180.911 3.84499 180.57 3.89036 180.24 3.93573C180.07 3.95841 179.877 3.9811 179.638 3.99244C178.535 4.09452 176.853 4.23062 175.387 5.18336C173.784 6.22684 171.885 8.56333 170.851 9.93573L170.726 9.95841C157.313 12.0113 149.321 21.2665 145.024 26.2457C144.593 26.7448 144.195 27.1985 143.842 27.6068L141.773 29.6484L142.069 30C151.993 22.4575 157.313 22.31 164.531 22.3667C164.679 22.3667 165.19 22.3781 165.338 22.3781C165.906 22.3781 166.554 22.3214 166.952 21.448L168.305 19.5879C168.691 19.1002 169.044 18.6692 169.282 18.3743C169.373 18.3743 169.464 18.3743 169.555 18.3743C170.18 18.3516 170.828 18.3289 171.51 18.2949C173.795 18.1928 175.989 17.4896 177.956 16.2873C178.012 16.2647 178.069 16.242 178.115 16.2079C178.592 15.9017 179.058 15.5614 179.502 15.1985C179.774 14.9716 180.047 14.7448 180.309 14.4953C180.343 14.4612 180.388 14.4386 180.422 14.3932C180.797 14.0302 181.15 13.6786 181.491 13.2817L183.48 10.6503C183.537 10.5822 183.605 10.5369 183.662 10.4688L187.197 5.28544L187.641 4.67297H187.629L190.869 0.192817L190.857 0.170132ZM167.27 14.7788C166.702 15.448 166.168 16.1172 165.702 16.7183C165.668 16.7637 165.622 16.7977 165.588 16.8431C165.258 17.2741 164.826 17.8185 164.588 18.1701C157.369 18.8733 153.561 20.8355 146.616 25.5879C153.266 19.4745 160.677 15.5728 167.259 14.7902L167.27 14.7788ZM164.338 18.5898C164.292 18.6578 164.258 18.7146 164.224 18.7713C164.224 18.7826 164.201 18.8053 164.19 18.8166C164.156 18.8733 164.122 18.9414 164.099 18.9754C164.099 18.9754 164.099 18.9868 164.099 18.9981C164.076 19.0662 164.076 19.1002 164.065 19.1569C162.905 19.1342 159.086 19.6106 155.721 20.586C158.029 19.6219 160.404 18.9981 163.133 18.6352C163.542 18.5784 163.962 18.5444 164.383 18.4991C164.372 18.5331 164.338 18.5444 164.326 18.5784H164.338V18.5898ZM152.459 22.1966C152.766 22.0265 153.073 21.8563 153.379 21.6975C157.131 20.0983 162.723 19.4631 164.008 19.4405C164.008 19.7013 164.213 19.8034 164.576 19.9395C164.61 19.9508 164.656 19.9735 164.69 19.9849C161.268 19.9509 157.313 20.2004 152.447 22.1966H152.459ZM165.304 20.2684C165.429 20.3365 165.542 20.3819 165.69 20.4726C165.815 20.5406 165.918 20.6087 166.009 20.6767C160.234 20.3478 154.846 21.38 149.924 23.7505C150.117 23.6257 150.31 23.5009 150.492 23.3762C156.574 20.3932 161.302 20.189 165.304 20.2684ZM164.758 22.0378C157.631 21.9698 152.8 22.5595 145.968 26.7788C154.437 21.1077 161.928 21.4707 166.27 21.7656C165.918 22.0718 165.508 22.0832 164.758 22.0378ZM166.418 21.482C162.269 21.1985 155.13 20.7788 146.9 25.8715C147.252 25.6219 147.594 25.3724 147.923 25.1342C153.459 21.9244 159.643 20.518 166.35 20.983C166.475 21.1077 166.509 21.2212 166.509 21.3119C166.475 21.38 166.441 21.4367 166.406 21.4934L166.418 21.482ZM168.623 18.7713C168.077 19.4405 167.361 20.3478 166.782 21.1531C166.782 21.1418 166.77 21.1191 166.759 21.1077C166.759 21.0737 166.736 21.0397 166.713 21.0057C166.6 20.7902 166.35 20.552 165.827 20.2457C165.327 19.9509 164.951 19.8034 164.679 19.7013C164.224 19.5198 164.213 19.5085 164.338 19.1456C164.94 18.6125 166.531 18.4877 168.612 18.397C168.657 18.397 168.691 18.397 168.737 18.397C168.794 18.397 168.85 18.397 168.907 18.397C168.919 18.397 168.93 18.397 168.941 18.397C168.85 18.5104 168.737 18.6465 168.623 18.7826V18.7713ZM171.51 18.0113C170.84 18.0454 170.18 18.0681 169.567 18.0907H169.544C169.544 18.0907 169.453 18.0907 169.407 18.0907C169.396 18.0907 169.373 18.0907 169.362 18.0907C169.339 18.0907 169.316 18.0907 169.294 18.0907C169.26 18.0907 169.225 18.0907 169.191 18.0907C169.169 18.0907 169.146 18.0907 169.123 18.0907C168.055 18.1248 167.123 18.1701 166.338 18.2609C165.974 18.3062 165.645 18.3516 165.349 18.4197L165.27 18.4423C165.065 18.4877 164.883 18.5444 164.713 18.6125C164.77 18.5558 164.849 18.5104 164.917 18.465C164.917 18.465 164.917 18.465 164.929 18.465C164.985 18.431 165.031 18.3856 165.099 18.3516C165.201 18.2949 165.327 18.2495 165.452 18.2042C165.565 18.1588 165.679 18.1248 165.793 18.0794C165.884 18.0567 165.974 18.034 166.077 18.0227C166.35 17.966 166.645 17.9093 166.963 17.8752C167.532 17.8072 168.157 17.7732 168.828 17.7505C168.998 17.7505 169.169 17.7505 169.339 17.7278C169.51 17.7278 169.68 17.7278 169.862 17.7164C171.726 17.6597 173.761 17.5917 175.591 17.1607C174.284 17.6597 172.908 17.9546 171.499 18.0227L171.51 18.0113ZM177.842 16.0378C175.603 17.2741 172.556 17.3648 169.862 17.4442C168.043 17.4896 166.406 17.5577 165.315 17.966C165.258 17.9887 165.201 18.0113 165.145 18.034C165.167 18.0113 165.201 17.9887 165.224 17.9773C166.475 16.9905 168.828 16.9225 171.317 16.8544C173.545 16.7977 175.966 16.7183 177.944 15.9811C177.91 16.0038 177.876 16.0151 177.842 16.0378ZM179.342 14.9716C177.274 16.4121 174.136 16.5028 171.306 16.5822C169.066 16.6389 166.918 16.707 165.542 17.4442C166.588 16.3554 169.123 16.2193 171.817 16.0945C174.579 15.9584 177.603 15.811 179.74 14.6314C179.604 14.7448 179.479 14.8696 179.342 14.9716ZM171.806 15.811C169.476 15.9244 167.395 16.0265 166.099 16.6957C167.191 15.5614 169.737 15.4026 172.431 15.2552C175.409 15.0851 178.683 14.8809 180.9 13.3951C178.956 15.448 175.182 15.6522 171.817 15.811H171.806ZM172.408 14.983C170.135 15.1077 168.089 15.2325 166.77 15.879C167.793 14.6767 170.408 14.518 173.193 14.3705C176.091 14.2231 179.274 14.0302 181.4 12.6465C179.308 14.5747 175.671 14.8015 172.42 14.983H172.408ZM181.786 12.034C179.763 13.7353 176.285 13.9282 173.17 14.087C170.851 14.2117 168.771 14.3251 167.441 14.9943C167.464 14.9603 167.486 14.9376 167.52 14.9036C167.52 14.9036 167.543 14.8922 167.543 14.8809C167.714 14.6881 167.952 14.518 168.214 14.3705C168.589 14.1664 169.044 13.9962 169.578 13.8941C169.953 13.8261 170.339 13.7694 170.783 13.7467C170.987 13.7467 171.226 13.724 171.465 13.7127C171.681 13.7127 171.897 13.69 172.136 13.69C172.17 13.69 172.192 13.69 172.226 13.69C173.602 13.6446 175.273 13.5652 176.682 13.3951C176.682 13.3951 176.682 13.3951 176.694 13.3951C176.989 13.3497 177.285 13.3043 177.592 13.259C177.603 13.259 177.626 13.259 177.637 13.259C178.774 13.0662 179.934 12.7826 180.979 12.3403C181.343 12.1815 181.695 12 182.025 11.7958C181.946 11.8752 181.866 11.966 181.775 12.0454L181.786 12.034ZM183.48 10.1626C183.389 10.276 183.287 10.3781 183.185 10.4802C183.037 10.6503 182.866 10.8091 182.707 10.9565C181.116 12.3176 178.797 12.828 176.66 13.1342C175.239 13.3043 173.511 13.3724 172.124 13.4291C171.613 13.4518 171.147 13.4631 170.771 13.4858C169.669 13.5425 168.782 13.7694 168.123 14.1323L170.555 10.8091C170.658 10.6843 170.76 10.5595 170.874 10.4575C170.953 10.3781 171.022 10.31 171.101 10.242C171.954 9.57278 173.068 9.31191 174.693 9.13043C175.568 9.02836 176.603 8.98299 177.694 8.93762C178.922 8.88091 180.184 8.8242 181.218 8.68809C182.787 8.47259 184.264 8.13233 185.867 6.65784L183.48 10.1739V10.1626Z" fill="#1D4CC4"/>
</g>
<defs>
<clipPath id="clip0_25608_2771">
<rect width="191" height="30" fill="white"/>
</clipPath>
</defs>
</svg>
