<svg width="24" height="24" viewBox="0 0 24 24" fill="none" xmlns="http://www.w3.org/2000/svg">
<g clip-path="url(#clip0_25608_2796)">
<path d="M1.66267 21.8702C3.32542 23.5238 6.00151 23.5238 11.3538 23.5238H12.2999C17.6522 23.5238 20.3283 23.5238 21.991 21.8702C23.6537 20.2166 23.6537 17.5552 23.6537 12.2324V11.2914C23.6537 5.96855 23.6537 3.30713 21.991 1.65353C20.3283 0 17.6522 0 12.2999 0H11.3538C6.00151 0 3.32542 0 1.66267 1.65353C-3.17891e-07 3.30713 0 5.96855 0 11.2914V12.2324C0 17.5552 -3.17891e-07 20.2166 1.66267 21.8702Z" fill="#0077FF"/>
<path fill-rule="evenodd" clip-rule="evenodd" d="M18.2608 15.6359L16.6626 15.2388C16.4702 15.1839 16.3343 15.0116 16.3274 14.8115L16.128 8.96148C16.0703 8.18717 15.4923 7.57135 14.8884 7.39001C14.8544 7.37979 14.8183 7.39348 14.7982 7.42255C14.7777 7.45206 14.7856 7.49286 14.8141 7.51472C14.9632 7.62957 15.3737 8.00424 15.3737 8.65055L15.3725 16.2993C15.3725 17.0378 14.6708 17.5795 13.947 17.3997L12.324 16.9965C12.1441 16.9339 12.0191 16.7673 12.0125 16.575L11.8131 10.7245C11.7554 9.95028 11.1775 9.33446 10.5735 9.15304C10.5396 9.1429 10.5033 9.15659 10.4832 9.18557C10.4629 9.21508 10.4708 9.25588 10.4992 9.27784C10.6484 9.39268 11.0589 9.76735 11.0589 10.4136L11.0576 16.7892L11.0586 16.7894V18.0631C11.0586 18.8017 10.3568 19.3433 9.63293 19.1635L5.04893 18.0247C4.4116 17.8664 3.96484 17.2994 3.96484 16.6492V8.98841C3.96484 8.24993 4.66653 7.70824 5.39036 7.88806L8.2788 8.60566V7.22468C8.2788 6.4861 8.98058 5.94441 9.7044 6.12424L12.5927 6.84175V5.46077C12.5927 4.72228 13.2944 4.1805 14.0183 4.36041L18.6023 5.49917C19.2396 5.65748 19.6864 6.22441 19.6864 6.87473V14.5354C19.6864 15.274 18.9847 15.8156 18.2608 15.6359Z" fill="white"/>
</g>
<defs>
<clipPath id="clip0_25608_2796">
<rect width="24" height="24" fill="white"/>
</clipPath>
</defs>
</svg>
